<svg width="125" height="32" viewBox="0 0 125 32" fill="none" xmlns="http://www.w3.org/2000/svg">
<path d="M94.9372 27.225C94.9507 27.17 94.9923 26.992 94.9923 26.8274C94.9923 26.1002 94.4296 25.6886 93.7849 25.6886C93.0852 25.6886 92.303 26.2373 91.7958 26.8409L90.7215 31.7299C90.708 31.7909 90.654 31.8344 90.5915 31.8344H90.1378C90.0528 31.8344 89.9893 31.7554 90.0078 31.6724L91.0006 27.225C91.0281 27.0195 91.0556 26.9505 91.0556 26.7449C91.0421 26.1547 90.6165 25.6886 89.8207 25.6886C89.1345 25.6886 88.3803 26.2373 87.8451 26.8409L86.7708 31.7299C86.7573 31.7909 86.7033 31.8344 86.6408 31.8344H86.2002C86.1151 31.8344 86.0516 31.7554 86.0701 31.6724L87.479 25.3125C87.4925 25.2515 87.5466 25.208 87.6091 25.208H88.0502C88.1352 25.208 88.1982 25.2865 88.1802 25.3695L87.9962 26.2092C88.3663 25.7841 89.1485 25.0434 90.1088 25.0434C91.2201 25.0434 91.7688 25.8391 91.7688 26.3193V26.3603C92.29 25.7016 93.1132 25.0434 94.06 25.0434C94.9517 25.0434 95.734 25.6061 95.734 26.6624C95.734 26.7994 95.693 27.033 95.6514 27.225L94.6592 31.7304C94.6457 31.7914 94.5916 31.8349 94.5291 31.8349H94.0885C94.0035 31.8349 93.9399 31.7564 93.9584 31.6729L94.9377 27.225H94.9372ZM99.9307 25.0439C101.714 25.0439 102.853 26.1962 102.853 27.9523C102.853 30.0514 101.303 31.9995 99.204 31.9995C97.4205 31.9995 96.2816 30.8471 96.2816 29.0911C96.2816 26.992 97.8321 25.0439 99.9307 25.0439ZM99.9172 25.6886C98.2572 25.6886 97.0639 27.3486 97.0639 29.0636C97.0639 30.4495 97.8596 31.3548 99.2175 31.3548C100.877 31.3548 102.071 29.6948 102.071 27.9798C102.071 26.5944 101.275 25.6886 99.9172 25.6886ZM103.939 31.8349H103.499C103.414 31.8349 103.35 31.7564 103.369 31.6729L105.327 22.7887C105.34 22.7277 105.394 22.6842 105.457 22.6842H105.898C105.983 22.6842 106.046 22.7627 106.028 22.8458L105.295 26.2097C105.83 25.51 106.626 25.0439 107.572 25.0439C109.081 25.0439 110.151 26.0592 110.151 27.7742C110.151 29.9829 108.765 32 106.68 32C105.583 32 104.746 31.4648 104.293 30.7101L104.069 31.7304C104.055 31.7914 104.001 31.8349 103.939 31.8349H103.939ZM107.366 25.6886C106.434 25.6886 105.583 26.2788 105.117 26.9645L104.417 30.1474C104.746 30.8061 105.542 31.3548 106.612 31.3548C108.286 31.3548 109.37 29.6398 109.37 27.8972C109.37 26.5388 108.574 25.6886 107.367 25.6886H107.366ZM112.206 25.2085H112.647C112.732 25.2085 112.796 25.2875 112.777 25.3705L111.368 31.7304C111.355 31.7914 111.301 31.8349 111.238 31.8349H110.797C110.712 31.8349 110.649 31.7559 110.667 31.6729L112.076 25.313C112.09 25.252 112.144 25.2085 112.206 25.2085ZM112.868 22.9858C113.156 22.9858 113.375 23.2054 113.375 23.4659C113.375 23.85 113.032 24.0831 112.758 24.0831C112.47 24.0831 112.25 23.8636 112.25 23.603C112.25 23.2189 112.593 22.9858 112.868 22.9858ZM115.156 22.6842H115.596C115.681 22.6842 115.745 22.7627 115.726 22.8463L113.768 31.7304C113.755 31.7914 113.701 31.8349 113.638 31.8349H113.198C113.113 31.8349 113.049 31.7564 113.068 31.6729L115.026 22.7887C115.039 22.7277 115.093 22.6842 115.156 22.6842ZM119.37 25.0439C121.139 25.0439 122.182 26.2923 122.182 27.9112C122.182 28.1483 122.136 28.4504 122.096 28.6415C122.083 28.7035 122.029 28.748 121.966 28.748H116.593C116.524 28.748 116.467 28.8005 116.461 28.869C116.453 28.9531 116.448 29.0536 116.448 29.1321C116.448 30.353 117.257 31.3818 118.876 31.3818C119.501 31.3818 120.198 31.1802 120.755 30.7656C120.821 30.7166 120.915 30.7371 120.953 30.8096L121.1 31.0887C121.131 31.1477 121.113 31.2207 121.059 31.2597C120.475 31.6789 119.668 31.9995 118.849 31.9995C116.86 31.9995 115.693 30.8061 115.693 29.0771C115.693 26.8684 117.312 25.0439 119.37 25.0439ZM121.497 27.8837C121.497 26.5944 120.714 25.6611 119.288 25.6611C117.978 25.6611 116.814 26.7914 116.556 28.1223C116.549 28.1553 116.575 28.1858 116.608 28.1858H121.436C121.464 28.1858 121.487 28.1648 121.489 28.1373C121.496 28.0608 121.496 27.9503 121.496 27.8837H121.497Z" fill="#EC778F"/>
<path d="M40.3011 5.89474H46.1614C46.2694 5.89474 46.3499 5.99527 46.3254 6.1008L45.9238 7.83982C47.1822 6.64296 49.2628 5.59415 51.0658 5.51663C51.1738 5.51213 51.2574 5.61066 51.2369 5.71669L50.2141 11.0703C50.196 11.1653 50.102 11.2263 50.0085 11.2018C49.7539 11.1358 49.4148 11.0948 49.0042 11.0948C47.7288 11.0948 45.9138 11.6369 45.0695 12.5297L43.8097 16.995C43.2285 19.5128 40.9863 21.2958 38.4026 21.2958H36.8501C36.7421 21.2958 36.6615 21.1953 36.6861 21.0897L40.1701 5.99777C40.1841 5.93726 40.2376 5.89474 40.2996 5.89474H40.3011ZM78.6455 21.2683H83.1658C83.2443 21.2683 83.3123 21.2143 83.3298 21.1377L88.1623 0.206061C88.1868 0.10053 88.1068 0 87.9982 0H86.6013C83.746 0 81.2677 1.97108 80.6255 4.75341L79.9488 7.68427C79.0586 6.15382 77.5871 5.48412 75.8971 5.48412C72.039 5.48412 68.3739 8.51352 67.2111 13.5515C66.0037 18.7811 68.3704 21.6509 72.165 21.6509C73.8871 21.6509 75.6116 20.9492 77.2255 19.4828C77.0145 20.396 77.7087 21.2683 78.646 21.2683H78.6455ZM77.9282 15.6626C77.9057 15.7602 77.8547 15.8487 77.7802 15.9152C77.1505 16.4769 76.1742 16.8565 75.4335 16.8565C73.9781 16.8565 73.1578 15.7587 73.5545 14.0407C73.9511 12.3226 75.2725 11.2488 76.7284 11.2488C77.4251 11.2488 78.1788 11.5659 78.5749 12.0686C78.6655 12.1836 78.697 12.3341 78.664 12.4767L77.9287 15.6616L77.9282 15.6626ZM94.7312 5.48712L94.4221 5.48562C91.0606 5.46812 88.1118 7.64426 87.106 10.7992L87.105 10.8022C87.0724 10.9037 87.0419 11.0063 87.0139 11.1103C86.9844 11.2188 86.9569 11.3293 86.9319 11.4399L86.8794 11.673V11.675C86.8649 11.73 86.8524 11.785 86.8394 11.8405L84.7413 21.1277C84.7217 21.2143 84.7873 21.2953 84.8748 21.2948L86.3432 21.2898C89.2181 21.2898 91.7123 19.3057 92.359 16.5049L92.449 16.1138C92.45 16.1108 92.451 16.1068 92.4515 16.1038L93.8109 10.215L94.7717 6.05279L94.8643 5.65167C94.8648 5.64917 94.8652 5.64617 94.8652 5.64367L94.8663 5.63817C94.8753 5.55864 94.8132 5.48612 94.7307 5.48562L94.7312 5.48712ZM92.4715 19.2052C92.434 19.2547 92.437 19.3247 92.48 19.3697C93.7989 20.7596 96.3772 21.6504 99.069 21.6504C103.501 21.6504 106.585 19.4823 107.262 16.5484C108.204 12.4667 106.145 11.829 103.633 11.3829C102.073 11.0958 100.936 11.0908 101.465 10.1395C101.988 9.19972 104.762 10.4881 105.623 11.3824C105.678 11.4394 105.77 11.4344 105.818 11.3714L108.666 7.62075C108.707 7.56674 108.7 7.48971 108.648 7.4457C107.273 6.27686 105.296 5.48362 102.77 5.48362C98.4968 5.48362 95.6245 7.84332 94.9988 10.5536C94.0935 14.4758 95.812 15.0179 98.3238 15.4641C99.8592 15.7191 101.213 15.9432 100.661 16.8035C100.037 17.7778 96.7543 16.1713 95.711 15.141C95.656 15.087 95.566 15.0945 95.5194 15.156L92.473 19.2047L92.4715 19.2052ZM118.598 5.48462C113.783 5.48462 109.572 9.08769 108.541 13.552C107.385 18.558 110.338 21.6514 115.089 21.6514C117.415 21.6514 120.077 21.0007 121.922 19.6693C121.97 19.6348 121.988 19.5728 121.969 19.5173L120.703 15.9117C120.674 15.8292 120.575 15.7967 120.503 15.8457C119.461 16.5574 117.891 17.0525 116.58 17.0525C114.356 17.0525 113.901 16.6029 113.915 15.27C113.916 15.197 113.975 15.138 114.048 15.138L124.146 15.1155C124.208 15.1155 124.261 15.0725 124.275 15.0124L124.495 14.0632C125.702 8.83361 123.159 5.48562 118.599 5.48562M114.682 11.7185C115.028 10.8577 115.94 9.67686 117.588 9.67686C119.236 9.67686 119.636 10.7682 119.588 11.5944C119.584 11.6644 119.525 11.7185 119.455 11.7185H114.682ZM58.5245 19.7393C58.344 20.5226 58.9381 21.2698 59.7419 21.2698H64.1117C64.1737 21.2698 64.2277 21.2268 64.2412 21.1668L66.4408 11.6399C67.5452 6.85703 63.2499 5.48562 59.5513 5.48562C57.2161 5.48562 54.4418 6.17233 52.0901 7.82431C52.0451 7.85582 52.0246 7.91184 52.0371 7.96535L52.8398 11.2758C52.8618 11.3669 52.9679 11.4064 53.0449 11.3539C54.4943 10.3721 56.1533 9.83791 57.6292 9.83791C59.6063 9.83791 60.5481 10.7307 60.239 12.0701L59.9599 13.5205C59.3002 12.3727 57.6297 11.735 55.5891 11.735C53.2294 11.735 50.038 12.8508 49.1767 16.5819C48.3745 20.0574 50.9398 21.6519 53.2995 21.6519C55.2766 21.6519 57.3027 20.8867 58.524 19.7388M58.9446 17.2596C58.9231 17.3531 58.8751 17.4397 58.8046 17.5047C58.2539 18.0108 57.3522 18.2744 56.5544 18.2744C55.5266 18.2744 54.7284 17.8233 54.948 16.8705C55.168 15.9177 56.1748 15.4666 57.2026 15.4666C57.9298 15.4666 58.643 15.6856 59.0067 16.0923C59.1112 16.2093 59.1497 16.3708 59.1147 16.5234L58.9446 17.2601V17.2596ZM29.7275 19.7388C29.5469 20.5221 30.1411 21.2693 30.9449 21.2693H35.3146C35.3767 21.2693 35.4307 21.2263 35.4442 21.1663L37.6438 11.6394C38.7482 6.85653 34.4529 5.48512 30.7543 5.48512C28.4191 5.48512 25.6448 6.17182 23.2931 7.82381C23.2481 7.85532 23.2276 7.91134 23.2401 7.96485L24.0428 11.2753C24.0648 11.3664 24.1709 11.4059 24.2479 11.3534C25.6973 10.3716 27.3563 9.83741 28.8322 9.83741C30.8093 9.83741 31.7511 10.7302 31.442 12.0696L31.1629 13.52C30.5032 12.3722 28.8327 11.7345 26.7921 11.7345C24.4324 11.7345 21.241 12.8503 20.3797 16.5814C19.5775 20.0569 22.1428 21.6514 24.5025 21.6514C26.4795 21.6514 28.5056 20.8862 29.727 19.7383M30.8398 17.2591C30.8183 17.3526 30.7703 17.4392 30.6998 17.5042C30.1491 18.0103 29.2474 18.2739 28.4496 18.2739C27.4218 18.2739 26.6236 17.8228 26.8431 16.87C27.0632 15.9172 28.07 15.4661 29.0978 15.4661C29.825 15.4661 30.5382 15.6851 30.9018 16.0918C31.0064 16.2088 31.0449 16.3703 31.0099 16.5229L30.8398 17.2596V17.2591ZM13.6652 5.65017C13.6858 5.55864 13.6277 5.48462 13.5362 5.48462C9.16041 5.48462 4.82713 9.03167 3.85685 13.4075L0.00570887 30.7801C-0.020799 30.9006 0.0472212 31.0022 0.163756 31.0162C0.472347 31.0537 0.790441 31.0732 1.11754 31.0732C4.93467 31.0732 8.71528 27.9788 9.56153 24.1611L11.6401 14.7849C11.6687 14.6568 11.5876 14.5533 11.4596 14.5533H10.3243C10.1772 14.5533 10.1207 14.3943 10.2222 14.2667L12.3429 11.6119L13.6647 5.64967L13.6652 5.65017ZM20.5268 13.573C19.554 17.9598 15.2702 21.5314 10.8859 21.6579C10.7539 21.6619 10.6689 21.5569 10.6979 21.4258L12.1698 14.7854C12.1983 14.6573 12.3249 14.5538 12.4529 14.5538H13.5887C13.7358 14.5538 13.8628 14.3948 13.8178 14.2672L12.8735 11.6124L14.1799 5.72019C14.2089 5.58915 14.3409 5.48412 14.471 5.48812C18.7993 5.61466 21.5001 9.18622 20.5273 13.573H20.5268ZM93.2808 4.27826C93.9265 4.23675 94.5237 3.97718 94.9018 3.55755C95.2799 3.13793 95.531 2.67979 95.635 2.30568C95.9836 1.05031 95.1838 0 93.2583 0C91.3327 0 89.9033 0.780731 89.1461 2.33619C88.6684 3.31798 88.6779 3.88215 88.4879 5.34508C88.4789 5.4136 88.5089 5.47212 88.5744 5.50013C88.6344 5.52613 88.7039 5.51363 88.7574 5.47562C89.3691 5.04749 90.0593 4.7499 90.7865 4.60486C91.6048 4.44181 92.439 4.33228 93.2813 4.27776L93.2808 4.27826Z" fill="#EC778F"/>
</svg>
